<svg width="300" height="300" viewBox="0 0 300 300" fill="none" xmlns="http://www.w3.org/2000/svg">
<rect width="300" height="300" rx="70" fill="#0F0137"/>
<path d="M149.998 25L138.311 102.984L149.998 142.148L161.686 102.984L149.998 25Z" fill="white"/>
<path d="M149.998 275L161.686 197.016L149.998 157.852L138.311 197.016L149.998 275Z" fill="white"/>
<path d="M274.996 149.997L197.012 138.31L157.849 149.997L197.012 161.684L274.996 149.997Z" fill="white"/>
<path d="M25 149.997L102.983 161.684L142.147 149.997L102.983 138.31L25 149.997Z" fill="white"/>
<path d="M237.858 61.0819L174.738 108.346L155.527 144.42L191.366 124.773L237.858 61.0819Z" fill="white"/>
<path d="M62.1408 238.921L125.261 191.658L144.471 155.583L108.633 175.23L62.1408 238.921Z" fill="white"/>
<path d="M238.913 237.852L191.65 174.732L155.575 155.522L175.222 191.359L238.913 237.852Z" fill="white"/>
<path d="M61.0755 62.15L108.339 125.271L144.413 144.481L124.766 108.642L61.0755 62.15Z" fill="white"/>
</svg>
